<svg xmlns="http://www.w3.org/2000/svg" version="1.1" xmlns:xlink="http://www.w3.org/1999/xlink" xmlns:svgjs="http://svgjs.dev/svgjs" width="1500" height="1500" viewBox="0 0 1500 1500"><rect width="1500" height="1500" fill="#ffffff"></rect><g transform="matrix(0.33875338753387535,0,0,0.33875338753387535,494.0392359491649,248.38709677419354)"><svg viewBox="0 0 126 248" data-background-color="#ffffff" preserveAspectRatio="xMidYMid meet" height="2952" width="1500" xmlns="http://www.w3.org/2000/svg" xmlns:xlink="http://www.w3.org/1999/xlink"><g id="tight-bounds" transform="matrix(1,0,0,1,0.47007874015747575,0.4000000000000057)"><svg viewBox="0 0 125.05984251968506 247.2" height="247.2" width="125.05984251968506"><g><svg viewBox="0 0 125.05984251968506 247.2" height="247.2" width="125.05984251968506"><g><svg viewBox="0 0 125.05984251968506 247.2" height="247.2" width="125.05984251968506"><g id="textblocktransform"><svg viewBox="0 0 125.05984251968506 247.2" height="247.2" width="125.05984251968506" id="textblock"><g><svg viewBox="0 0 125.05984251968506 247.2" height="247.2" width="125.05984251968506"><g transform="matrix(1,0,0,1,0,0)"><svg width="125.05984251968506" viewBox="1.85 -37.15 25.7 50.8" height="247.2" data-palette-color="#5f0d9b"><g class="wordmark-text-0" data-fill-palette-color="primary" id="text-0"><path d="M2.25 13.65L2.25 13.65Q1.95 13.25 1.9 12.8 1.85 12.35 1.85 11.8L1.85 11.8Q4.5 10.95 5.38 9.25 6.25 7.55 6.25 5.4L6.25 5.4Q6.25 3.05 5.75 0.5 5.25-2.05 5.25-4.5L5.25-4.5Q5.25-6.25 5.8-7.8 6.35-9.35 7.75-10.53 9.15-11.7 11.75-12.3L11.75-12.3Q9.1-12.9 7.7-14 6.3-15.1 5.8-16.6 5.3-18.1 5.3-19.8L5.3-19.8Q5.35-22.1 5.9-24.6 6.45-27.1 6.45-29.35L6.45-29.35Q6.45-31.4 5.58-33.02 4.7-34.65 2.15-35.45L2.15-35.45Q2.15-35.9 2.3-36.35 2.45-36.8 2.7-37.15L2.7-37.15Q5.3-36.35 6.9-35.3 8.5-34.25 9.35-33 10.2-31.75 10.55-30.35 10.9-28.95 10.9-27.5L10.9-27.5Q10.9-25.55 10.6-23.58 10.3-21.6 10.3-19.8L10.3-19.8Q10.35-17.6 11.28-15.85 12.2-14.1 15.1-13.1L15.1-13.1Q15.3-12.65 15.33-12.2 15.35-11.75 15.35-11.3L15.35-11.3Q12.3-10.35 11.38-8.45 10.45-6.55 10.4-4.1L10.4-4.1Q10.4-2.4 10.63-0.55 10.85 1.3 10.85 3.2L10.85 3.2Q10.85 4.8 10.5 6.35 10.15 7.9 9.25 9.28 8.35 10.65 6.65 11.78 4.95 12.9 2.25 13.65ZM24.25-15.2L24.25-15.2Q22.75-15.2 21.9-16.05 21.05-16.9 21.05-18.2L21.05-18.2Q21.05-19.55 22.02-20.48 23-21.4 24.45-21.4L24.45-21.4Q25.9-21.4 26.72-20.43 27.55-19.45 27.55-18.45L27.55-18.45Q27.55-16.85 26.57-16.03 25.6-15.2 24.25-15.2ZM25.7-5.35L25.7-5.35Q26.65-5 27.1-4.08 27.55-3.15 27.55-1.5L27.55-1.5Q27.55 1.5 25.95 4.33 24.35 7.15 22.15 9.25L22.15 9.25Q21.6 9.25 21.05 9.03 20.5 8.8 20.2 8.4L20.2 8.4Q23.4 4.8 23.4 2.1L23.4 2.1Q23.4 1.05 22.77 0.4 22.15-0.25 20.85-0.4L20.85-0.4Q20.85-1.1 20.97-2.05 21.1-3 21.35-3.8L21.35-3.8Q22.6-4.05 23.72-4.42 24.85-4.8 25.7-5.35Z" fill="#5f0d9b" data-fill-palette-color="primary"></path></g></svg></g></svg></g></svg></g></svg></g></svg></g><defs></defs></svg><rect width="125.05984251968506" height="247.2" fill="none" stroke="none" visibility="hidden"></rect></g></svg></g></svg>