<svg xmlns="http://www.w3.org/2000/svg" version="1.1" xmlns:xlink="http://www.w3.org/1999/xlink" xmlns:svgjs="http://svgjs.dev/svgjs" width="1500" height="1500" viewBox="0 0 1500 1500"><rect width="1500" height="1500" fill="#000000"></rect><g transform="matrix(0.6666666666666666,0,0,0.6666666666666666,249.39393939393938,434.6322178987285)"><svg viewBox="0 0 396 260" data-background-color="#000000" preserveAspectRatio="xMidYMid meet" height="984" width="1500" xmlns="http://www.w3.org/2000/svg" xmlns:xlink="http://www.w3.org/1999/xlink"><g id="tight-bounds" transform="matrix(1,0,0,1,0.2400000000000091,3.4352015687697133)"><svg viewBox="0 0 395.52 247.2" height="247.2" width="395.52"><rect width="395.52" height="256.09439529369075" fill="url(#ee27c00e-8513-49e5-b808-c83376b17d2b)" mask="url(#ba6de195-ed60-4ec9-944c-865d9fa61e47)" data-fill-palette-color="tertiary"></rect><g><svg></svg></g><g><svg viewBox="0 0 395.52 247.2" height="247.2" width="395.52"><g transform="matrix(1,0,0,1,97.66686536485096,47.215199999999996)"><svg viewBox="0 0 200.18626927029806 152.7696" height="152.7696" width="200.18626927029806"><g><svg viewBox="0 0 200.18626927029806 152.7696" height="152.7696" width="200.18626927029806"><g><svg viewBox="0 0 200.18626927029806 152.7696" height="152.7696" width="200.18626927029806"><g><svg viewBox="0 0 200.18626927029806 152.7696" height="152.7696" width="200.18626927029806"><g id="textblocktransform"><svg viewBox="0 0 200.18626927029806 152.7696" height="152.7696" width="200.18626927029806" id="textblock"><g><svg viewBox="0 0 200.18626927029806 152.7696" height="152.7696" width="200.18626927029806"><g transform="matrix(1,0,0,1,0,0)"><svg width="200.18626927029806" viewBox="3.49 -42.75 62.24999999999999 47.51" height="152.7696" data-palette-color="url(#6f9109eb-3ad4-4d5b-b7a0-e401e3cf19d3)"></svg></g></svg></g></svg></g></svg></g><g></g></svg></g></svg></g></svg></g><g><path d="M146.512 11.15A100.093 100.093 0 0 1 249.008 11.15L235.231 11.15A86.316 86.316 0 0 0 160.289 11.15L146.512 11.15M146.512 236.05A100.093 100.093 0 0 0 249.008 236.05L235.231 236.05A86.316 86.316 0 0 1 160.289 236.05L146.512 236.05" fill="url(#ee27c00e-8513-49e5-b808-c83376b17d2b)" stroke="transparent" data-fill-palette-color="tertiary"></path></g></svg></g><defs></defs><mask id="4ab89fa1-45e1-4efc-bfb0-be0e19230aa5"><g id="SvgjsG7769"><svg viewBox="0 0 395.52 247.2" height="247.2" width="395.52"><g><svg></svg></g><g><svg viewBox="0 0 395.52 247.2" height="247.2" width="395.52"><g transform="matrix(1,0,0,1,97.66686536485096,47.215199999999996)"><svg viewBox="0 0 200.18626927029806 152.7696" height="152.7696" width="200.18626927029806"><g><svg viewBox="0 0 200.18626927029806 152.7696" height="152.7696" width="200.18626927029806"><g><svg viewBox="0 0 200.18626927029806 152.7696" height="152.7696" width="200.18626927029806"><g><svg viewBox="0 0 200.18626927029806 152.7696" height="152.7696" width="200.18626927029806"><g id="SvgjsG7768"><svg viewBox="0 0 200.18626927029806 152.7696" height="152.7696" width="200.18626927029806" id="SvgjsSvg7767"><g><svg viewBox="0 0 200.18626927029806 152.7696" height="152.7696" width="200.18626927029806"><g transform="matrix(1,0,0,1,0,0)"><svg width="200.18626927029806" viewBox="3.49 -42.75 62.24999999999999 47.51" height="152.7696" data-palette-color="url(#6f9109eb-3ad4-4d5b-b7a0-e401e3cf19d3)"><path d="M7.15 4.76L3.49 4.76Q6.76 1 8.76-2.2L8.76-2.2Q13.84-10.28 13.84-18.97L13.84-18.97Q13.84-27.27 9.3-34.94L9.3-34.94Q7.18-38.5 3.49-42.75L3.49-42.75 7.15-42.75Q11.62-38.7 14.48-32.91L14.48-32.91Q17.99-25.76 17.99-18.99L17.99-18.99Q17.99-11.3 13.55-3.34L13.55-3.34Q10.89 1.46 7.15 4.76L7.15 4.76ZM28.49 4.76L28.49 1.29Q31.86 1.29 33.4 0.24L33.4 0.24Q34.93-0.81 34.93-3.71L34.93-3.71 34.93-11.21Q34.93-17.11 38.99-18.99L38.99-18.99Q34.93-20.83 34.93-26.81L34.93-26.81 34.93-34.3Q34.93-36.55 34.18-37.52L34.18-37.52Q32.86-39.21 28.49-39.31L28.49-39.31 28.49-42.75Q34.52-42.68 36.74-40.7L36.74-40.7Q38.35-39.26 38.69-36.62L38.69-36.62Q38.84-35.55 38.84-34.01L38.84-34.01 38.84-27.05Q38.84-20.65 44.85-20.51L44.85-20.51 44.85-17.5Q38.84-17.33 38.84-10.96L38.84-10.96 38.84-4Q38.84 0.1 37.47 1.9L37.47 1.9Q35.32 4.71 28.49 4.76L28.49 4.76ZM59.25-26.71L59.25-33.25 65.74-33.25 65.74-26.71 59.25-26.71ZM59.25-5.76L59.25-12.3 65.74-12.3 65.74-8.35Q65.74-2.42 62.01 1.95L62.01 1.95 59.25 1.95Q61.98-1.61 62.45-5.76L62.45-5.76 59.25-5.76Z" opacity="1" transform="matrix(1,0,0,1,0,0)" fill="white" class="wordmark-text-0" id="SvgjsPath7766"></path></svg></g></svg></g></svg></g></svg></g><g></g></svg></g></svg></g></svg></g><g><path d="M146.512 11.15A100.093 100.093 0 0 1 249.008 11.15L235.231 11.15A86.316 86.316 0 0 0 160.289 11.15L146.512 11.15M146.512 236.05A100.093 100.093 0 0 0 249.008 236.05L235.231 236.05A86.316 86.316 0 0 1 160.289 236.05L146.512 236.05" fill="black" stroke="transparent"></path></g></svg></g><defs><mask></mask></defs></svg><rect width="395.52" height="247.2" fill="black" stroke="none" visibility="hidden"></rect></g></mask><linearGradient x1="0" x2="1" y1="0.5" y2="0.5" id="6f9109eb-3ad4-4d5b-b7a0-e401e3cf19d3"><stop stop-color="#f00b51" offset="0"></stop><stop stop-color="#730062" offset="1"></stop></linearGradient><rect width="395.52" height="253.12959686246052" fill="url(#6f9109eb-3ad4-4d5b-b7a0-e401e3cf19d3)" mask="url(#4ab89fa1-45e1-4efc-bfb0-be0e19230aa5)" data-fill-palette-color="primary"></rect><mask id="ba6de195-ed60-4ec9-944c-865d9fa61e47"><g id="SvgjsG7792"><svg viewBox="0 0 395.52 247.2" height="247.2" width="395.52"><g><svg></svg></g><g><svg viewBox="0 0 395.52 247.2" height="247.2" width="395.52"><g transform="matrix(1,0,0,1,97.66686536485096,47.215199999999996)"><svg viewBox="0 0 200.18626927029806 152.7696" height="152.7696" width="200.18626927029806"><g><svg viewBox="0 0 200.18626927029806 152.7696" height="152.7696" width="200.18626927029806"><g><svg viewBox="0 0 200.18626927029806 152.7696" height="152.7696" width="200.18626927029806"><g><svg viewBox="0 0 200.18626927029806 152.7696" height="152.7696" width="200.18626927029806"><g id="SvgjsG7791"><svg viewBox="0 0 200.18626927029806 152.7696" height="152.7696" width="200.18626927029806" id="SvgjsSvg7790"><g><svg viewBox="0 0 200.18626927029806 152.7696" height="152.7696" width="200.18626927029806"><g transform="matrix(1,0,0,1,0,0)"><svg width="200.18626927029806" viewBox="3.49 -42.75 62.24999999999999 47.51" height="152.7696" data-palette-color="url(#6f9109eb-3ad4-4d5b-b7a0-e401e3cf19d3)"></svg></g></svg></g></svg></g></svg></g><g></g></svg></g></svg></g></svg></g><g><path d="M146.512 11.15A100.093 100.093 0 0 1 249.008 11.15L235.231 11.15A86.316 86.316 0 0 0 160.289 11.15L146.512 11.15M146.512 236.05A100.093 100.093 0 0 0 249.008 236.05L235.231 236.05A86.316 86.316 0 0 1 160.289 236.05L146.512 236.05" fill="white" stroke="transparent"></path></g></svg></g><defs><mask></mask></defs><mask><g id="SvgjsG7789"><svg viewBox="0 0 395.52 247.2" height="247.2" width="395.52"><g><svg></svg></g><g><svg viewBox="0 0 395.52 247.2" height="247.2" width="395.52"><g transform="matrix(1,0,0,1,97.66686536485096,47.215199999999996)"><svg viewBox="0 0 200.18626927029806 152.7696" height="152.7696" width="200.18626927029806"><g><svg viewBox="0 0 200.18626927029806 152.7696" height="152.7696" width="200.18626927029806"><g><svg viewBox="0 0 200.18626927029806 152.7696" height="152.7696" width="200.18626927029806"><g><svg viewBox="0 0 200.18626927029806 152.7696" height="152.7696" width="200.18626927029806"><g id="SvgjsG7788"><svg viewBox="0 0 200.18626927029806 152.7696" height="152.7696" width="200.18626927029806" id="SvgjsSvg7787"><g><svg viewBox="0 0 200.18626927029806 152.7696" height="152.7696" width="200.18626927029806"><g transform="matrix(1,0,0,1,0,0)"><svg width="200.18626927029806" viewBox="3.49 -42.75 62.24999999999999 47.51" height="152.7696" data-palette-color="url(#6f9109eb-3ad4-4d5b-b7a0-e401e3cf19d3)"><path d="M7.15 4.76L3.49 4.76Q6.76 1 8.76-2.2L8.76-2.2Q13.84-10.28 13.84-18.97L13.84-18.97Q13.84-27.27 9.3-34.94L9.3-34.94Q7.18-38.5 3.49-42.75L3.49-42.75 7.15-42.75Q11.62-38.7 14.48-32.91L14.48-32.91Q17.99-25.76 17.99-18.99L17.99-18.99Q17.99-11.3 13.55-3.34L13.55-3.34Q10.89 1.46 7.15 4.76L7.15 4.76ZM28.49 4.76L28.49 1.29Q31.86 1.29 33.4 0.24L33.4 0.24Q34.93-0.81 34.93-3.71L34.93-3.71 34.93-11.21Q34.93-17.11 38.99-18.99L38.99-18.99Q34.93-20.83 34.93-26.81L34.93-26.81 34.93-34.3Q34.93-36.55 34.18-37.52L34.18-37.52Q32.86-39.21 28.49-39.31L28.49-39.31 28.49-42.75Q34.52-42.68 36.74-40.7L36.74-40.7Q38.35-39.26 38.69-36.62L38.69-36.62Q38.84-35.55 38.84-34.01L38.84-34.01 38.84-27.05Q38.84-20.65 44.85-20.51L44.85-20.51 44.85-17.5Q38.84-17.33 38.84-10.96L38.84-10.96 38.84-4Q38.84 0.1 37.47 1.9L37.47 1.9Q35.32 4.71 28.49 4.76L28.49 4.76ZM59.25-26.71L59.25-33.25 65.74-33.25 65.74-26.71 59.25-26.71ZM59.25-5.76L59.25-12.3 65.74-12.3 65.74-8.35Q65.74-2.42 62.01 1.95L62.01 1.95 59.25 1.95Q61.98-1.61 62.45-5.76L62.45-5.76 59.25-5.76Z" opacity="1" transform="matrix(1,0,0,1,0,0)" fill="black" class="wordmark-text-0" id="SvgjsPath7786"></path></svg></g></svg></g></svg></g></svg></g><g></g></svg></g></svg></g></svg></g><g><path d="M146.512 11.15A100.093 100.093 0 0 1 249.008 11.15L235.231 11.15A86.316 86.316 0 0 0 160.289 11.15L146.512 11.15M146.512 236.05A100.093 100.093 0 0 0 249.008 236.05L235.231 236.05A86.316 86.316 0 0 1 160.289 236.05L146.512 236.05" fill="black" stroke="transparent"></path></g></svg></g><defs><mask></mask></defs></svg><rect width="395.52" height="247.2" fill="black" stroke="none" visibility="hidden"></rect></g></mask></svg><rect width="395.52" height="247.2" fill="black" stroke="none" visibility="hidden"></rect></g></mask><linearGradient x1="0" x2="1" y1="0.5" y2="0.5" id="ee27c00e-8513-49e5-b808-c83376b17d2b"><stop stop-color="#f00b51" offset="0"></stop><stop stop-color="#730062" offset="1"></stop></linearGradient></svg><rect width="395.52" height="247.2" fill="none" stroke="none" visibility="hidden"></rect></g></svg></g></svg>